<svg preserveAspectRatio="none" width="100%" height="100%" overflow="visible" style="display: block;" viewBox="0 0 18 18" fill="none" xmlns="http://www.w3.org/2000/svg">
<g id="Frame">
<path id="Vector" d="M6.225 7.5C6.12832 7.50528 6.03206 7.48371 5.94687 7.43769C5.86168 7.39167 5.79087 7.32299 5.74228 7.23924C5.69369 7.15549 5.66921 7.05993 5.67154 6.96313C5.67387 6.86633 5.70293 6.77206 5.7555 6.69075L8.55 2.25C8.59391 2.17093 8.65751 2.10454 8.73462 2.05727C8.81174 2.01001 8.89975 1.98346 8.99014 1.98022C9.08053 1.97698 9.17023 1.99714 9.25054 2.03875C9.33084 2.08037 9.39903 2.14203 9.4485 2.21775L12.225 6.675C12.2797 6.75359 12.3119 6.84566 12.3181 6.94123C12.3242 7.03681 12.3041 7.13224 12.2599 7.21721C12.2158 7.30218 12.1492 7.37345 12.0674 7.42329C11.9856 7.47314 11.8918 7.49967 11.796 7.5H6.225Z" stroke="var(--stroke-0, #34322D)" stroke-width="1.75" stroke-linecap="round" stroke-linejoin="round"/>
<path id="Vector_2" d="M6.75 10.5H3C2.58579 10.5 2.25 10.8358 2.25 11.25V15C2.25 15.4142 2.58579 15.75 3 15.75H6.75C7.16421 15.75 7.5 15.4142 7.5 15V11.25C7.5 10.8358 7.16421 10.5 6.75 10.5Z" stroke="var(--stroke-0, #34322D)" stroke-width="1.75" stroke-linecap="round" stroke-linejoin="round"/>
<path id="Vector_3" d="M13.125 15.75C14.5747 15.75 15.75 14.5747 15.75 13.125C15.75 11.6753 14.5747 10.5 13.125 10.5C11.6753 10.5 10.5 11.6753 10.5 13.125C10.5 14.5747 11.6753 15.75 13.125 15.75Z" stroke="var(--stroke-0, #34322D)" stroke-width="1.75" stroke-linecap="round" stroke-linejoin="round"/>
</g>
</svg>
