<svg preserveAspectRatio="none" width="100%" height="100%" overflow="visible" style="display: block;" viewBox="0 0 18 18" fill="none" xmlns="http://www.w3.org/2000/svg">
<g id="Frame">
<path id="Vector" d="M14.25 2.25H3.75C2.92157 2.25 2.25 2.92157 2.25 3.75V14.25C2.25 15.0784 2.92157 15.75 3.75 15.75H14.25C15.0784 15.75 15.75 15.0784 15.75 14.25V3.75C15.75 2.92157 15.0784 2.25 14.25 2.25Z" stroke="var(--stroke-0, #34322D)" stroke-width="1.75" stroke-linecap="round" stroke-linejoin="round"/>
<path id="Vector_2" d="M9 9.75C10.2426 9.75 11.25 8.74264 11.25 7.5C11.25 6.25736 10.2426 5.25 9 5.25C7.75736 5.25 6.75 6.25736 6.75 7.5C6.75 8.74264 7.75736 9.75 9 9.75Z" stroke="var(--stroke-0, #34322D)" stroke-width="1.75" stroke-linecap="round" stroke-linejoin="round"/>
<path id="Vector_3" d="M5.25 15.75V14.25C5.25 13.8522 5.40804 13.4706 5.68934 13.1893C5.97064 12.908 6.35218 12.75 6.75 12.75H11.25C11.6478 12.75 12.0294 12.908 12.3107 13.1893C12.592 13.4706 12.75 13.8522 12.75 14.25V15.75" stroke="var(--stroke-0, #34322D)" stroke-width="1.75" stroke-linecap="round" stroke-linejoin="round"/>
</g>
</svg>
