<svg preserveAspectRatio="none" width="100%" height="100%" overflow="visible" style="display: block;" viewBox="0 0 24 24" fill="none" xmlns="http://www.w3.org/2000/svg">
<g id="Frame">
<path id="Vector" d="M2.66674 20.1667C2.66674 21.4553 3.71142 22.5 5.00008 22.5H19.0001C20.2888 22.5 21.3334 21.4553 21.3334 20.1667V7.33333L15.5001 1.5H5.00008C3.71142 1.5 2.66674 2.54467 2.66674 3.83333V20.1667Z" fill="var(--fill-0, #3AA654)"/>
<path id="Vector_2" opacity="0.8" d="M15.5002 4.99985C15.5002 6.28852 16.5449 7.33319 17.8336 7.33319H21.3336L15.5002 1.49986V4.99985Z" fill="var(--fill-0, #84C293)"/>
<path id="Vector_3" opacity="0.9" d="M8.68335 10.25H10.2806L12.0002 12.721L13.8189 10.25H15.3473L12.7643 13.624L15.5001 17.2501H13.8724L12.0002 14.576L10.0286 17.2501H8.50012L11.2359 13.624L8.68335 10.25Z" fill="var(--fill-0, white)" stroke="var(--stroke-0, white)" stroke-width="0.2625"/>
</g>
</svg>
